<?xml version="1.0" encoding="utf-8"?>
<!-- Generator: Adobe Illustrator 27.5.0, SVG Export Plug-In . SVG Version: 6.00 Build 0)  -->
<svg version="1.1" id="Ñëîé_1" xmlns="http://www.w3.org/2000/svg" xmlns:xlink="http://www.w3.org/1999/xlink" x="0px" y="0px"
	 viewBox="0 0 3000 3000" style="enable-background:new 0 0 3000 3000;" xml:space="preserve">

<path d="M2387.378,2028.039c-1.008,70.782-16.954,138.211-49.549,200.859c-55.306,106.299-135.321,188.697-242.44,243.924
	c-105.588,54.437-213.8,60.665-324.367,17.326c-44.882-17.593-89.626-35.766-133.389-55.94
	c-79.51-36.653-158.697-36.303-240.007-5.854c-57.1,21.384-115.064,40.884-173.625,57.828
	c-60.648,17.549-123.08,23.955-186.364,16.736c-54.699-6.24-100.913-30.466-140.954-67.134
	c-51.068-46.766-91.934-101.361-117.719-165.751c-33.048-82.526-25.107-162.136,23.007-237.328
	c37.667-58.865,88.525-105.839,137.793-154.424c35.815-35.319,70.881-71.59,103.867-109.536
	c38.061-43.785,60.79-96.629,79.631-150.912c17.484-50.371,33.371-101.295,50.63-151.747c12.469-36.45,35.352-66.768,57.963-97.497
	c54.425-73.965,132.069-106.34,217.795-125.394c101.619-22.586,190.186,6.549,265.751,73.382
	c46.498,41.125,86.753,89.288,130.03,134.079c73.716,76.296,151.924,147.54,239.532,207.726c43.61,29.96,89.38,56.804,132.63,87.25
	c61.881,43.561,114.084,96.407,145.946,166.568C2380.226,1948.948,2386.82,1987.898,2387.378,2028.039z M1531.929,1786.743
	c-2.515-4.922-4.417-8.713-6.377-12.474c-24.154-46.353-82.337-76.45-134.011-69.331c-44.376,6.113-81.343,42.999-94.329,95.08
	c-14.003,56.16-3.893,110.302,16.312,162.94c32.95,85.841,85.121,159.265,149.396,224.23c44.451,44.928,79.9,44.176,123.647-1.539
	c60.739-63.47,110.031-134.733,144.238-215.945c20.157-47.856,34.996-97.142,37.25-149.472
	c1.627-37.793-3.241-74.193-24.754-106.631c-27.317-41.189-72.261-53.334-116.456-31.584c-27.48,13.525-49.205,33.716-66.35,58.755
	C1550.664,1755.125,1542.068,1770.325,1531.929,1786.743z"/>
<path d="M1389.583,978.564c0.163,56.661-9.868,117.838-36.722,175.316c-28.726,61.485-70.3,110.109-138.656,129.034
	c-56.256,15.575-108.181,3.027-156.595-27.209c-63.689-39.775-106.759-97.494-138.79-163.879
	c-46.514-96.402-64.44-198.39-54.907-304.968c5.632-62.96,23.435-121.808,58.611-175.336
	c60.662-92.31,169.692-118.401,264.503-62.228c61.515,36.446,104.598,89.654,137.359,151.803
	C1369.036,785.793,1390.311,876.378,1389.583,978.564z"/>
<path d="M2051.737,809.758c0.106,115.442-21.208,212.303-73.712,300.921c-29.363,49.559-66.913,91.743-118.834,118.875
	c-75.887,39.657-159.439,25.127-219.023-36.898c-47.153-49.085-72.75-108.845-86.452-174.247
	c-23.688-113.068-11.465-223.515,28.574-330.942c19.379-51.993,47.691-99.574,88.38-137.957
	c37.494-35.369,80.213-63.073,133.439-67.494c67.726-5.625,120.89,23.076,163.398,73.802
	c43.815,52.286,65.695,114.29,76.551,180.475C2048.738,764.831,2050.145,793.905,2051.737,809.758z"/>
<path d="M463.999,1366.248c0.938-51.556,10.777-100.024,41.432-142.083c40.053-54.954,96.129-75.223,162.382-71.076
	c67.037,4.196,124.103,33.162,175.339,74.013c91.261,72.763,151.616,165.669,175.63,280.615
	c10.625,50.856,11.423,102.179-6.367,151.711c-30.586,85.16-100.353,129.145-191.278,122.104
	c-56.57-4.381-106.361-26.999-152.049-59.204c-98.481-69.42-161.886-163.775-193.991-279.117
	C468.204,1418.446,467.535,1391.948,463.999,1366.248z"/>
<path d="M2536.001,1205.42c-15.258,160.138-80.408,283.928-206.756,373.089c-35.089,24.762-74.545,39.094-117.64,43.463
	c-72.887,7.39-139.159-33.639-166.557-103.857c-24.079-61.711-22.676-124.874-7.53-187.72
	c29.15-120.952,94.168-218.666,196.355-290.299c45.232-31.707,96.548-44.651,151.726-40.05
	c64.156,5.35,118.383,53.482,137.13,124.267C2530.306,1152.927,2532.468,1182.974,2536.001,1205.42z"/>
<path style="fill:#FFFFFF;" d="M1531.929,1786.743c10.139-16.418,18.735-31.617,28.565-45.971
	c17.146-25.038,38.87-45.229,66.35-58.755c44.195-21.751,89.139-9.605,116.456,31.584c21.513,32.438,26.382,68.839,24.754,106.631
	c-2.254,52.331-17.093,101.616-37.25,149.472c-34.206,81.212-83.499,152.475-144.238,215.945
	c-43.747,45.715-79.195,46.467-123.647,1.539c-64.275-64.965-116.447-138.389-149.396-224.23
	c-20.205-52.639-30.315-106.78-16.312-162.94c12.986-52.081,49.953-88.967,94.329-95.08c51.674-7.118,109.856,22.979,134.011,69.331
	C1527.512,1778.03,1529.415,1781.82,1531.929,1786.743z"/>
</svg>
