<svg width="48" height="48" viewBox="0 0 48 48" fill="none" xmlns="http://www.w3.org/2000/svg">
<path d="M26.9954 18H28.5985C30.6704 21.5906 34.5517 24 38.9954 24C40.0267 24 41.0392 23.8687 41.9954 23.625V24V27V45C41.9954 46.6594 40.6548 48 38.9954 48C37.336 48 35.9954 46.6594 35.9954 45V31.8L23.2454 42H28.4954C30.1548 42 31.4954 43.3406 31.4954 45C31.4954 46.6594 30.1548 48 28.4954 48H14.9954C10.0267 48 5.99542 43.9688 5.99542 39V18.0469C5.99542 16.5375 4.87042 15.2531 3.37042 15.0656L2.6298 14.9719C0.989171 14.7656 -0.182704 13.2656 0.0235464 11.625C0.229796 9.98438 1.7298 8.8125 3.37042 9.01875L4.11105 9.1125C8.61105 9.675 11.9954 13.5 11.9954 18.0469V26.0437C15.2204 21.1969 20.7329 18 26.9954 18ZM41.9954 20.4844C41.0579 20.8125 40.0454 21 38.9954 21C36.3329 21 33.9329 19.8375 32.2829 18C31.936 17.6156 31.6267 17.2031 31.3548 16.7625C30.4923 15.375 29.9954 13.7437 29.9954 12V3V1.125V1.00312C29.9954 0.45 30.436 0.009375 30.9892 0H31.0079C31.3173 0 31.6079 0.15 31.7954 0.39375V0.403125L32.9954 1.99687L35.5454 5.4L35.9954 6H41.9954L42.4454 5.4L44.9954 1.99687L46.1954 0.403125V0.39375C46.3829 0.15 46.6735 0 46.9829 0H47.0017C47.5548 0.009375 47.9954 0.45 47.9954 1.00312V1.125V3V12C47.9954 13.6219 47.5642 15.15 46.8142 16.4625C45.7548 18.3188 44.0392 19.7625 41.9954 20.4844ZM37.4954 12C37.4954 11.6022 37.3374 11.2206 37.0561 10.9393C36.7748 10.658 36.3932 10.5 35.9954 10.5C35.5976 10.5 35.2161 10.658 34.9348 10.9393C34.6535 11.2206 34.4954 11.6022 34.4954 12C34.4954 12.3978 34.6535 12.7794 34.9348 13.0607C35.2161 13.342 35.5976 13.5 35.9954 13.5C36.3932 13.5 36.7748 13.342 37.0561 13.0607C37.3374 12.7794 37.4954 12.3978 37.4954 12ZM41.9954 13.5C42.3932 13.5 42.7748 13.342 43.0561 13.0607C43.3374 12.7794 43.4954 12.3978 43.4954 12C43.4954 11.6022 43.3374 11.2206 43.0561 10.9393C42.7748 10.658 42.3932 10.5 41.9954 10.5C41.5976 10.5 41.2161 10.658 40.9348 10.9393C40.6535 11.2206 40.4954 11.6022 40.4954 12C40.4954 12.3978 40.6535 12.7794 40.9348 13.0607C41.2161 13.342 41.5976 13.5 41.9954 13.5Z" fill="#06100E"/>
</svg>