<svg xmlns="http://www.w3.org/2000/svg" width="120" height="119.699" viewBox="0 0 120 119.699">
  <path id="Tracé_2" data-name="Tracé 2" d="M551.516,44.486c.3-.727.785-1.595,1.67-1.637.649.006,1.543-.234,1.941.449a10.622,10.622,0,0,1,1.151,2.584c.76,2.316,1.317,4.691,1.854,7.065.449,1.565.186,3.208.258,4.812a14.854,14.854,0,0,1-1.564,6.407,88.762,88.762,0,0,1-6.184,11.252,15.352,15.352,0,0,0,.349,4.4,18.2,18.2,0,0,0,4.564,7.385,39.314,39.314,0,0,0,3.326,3.129c.223.2.546.094.819.118a33,33,0,0,1,12.984-11.9,34.657,34.657,0,0,1,10.1-3.184,39.477,39.477,0,0,1,14.975.337c7.987,1.779,15.4,5.467,22.382,9.637a20.65,20.65,0,0,0,2.1.736,4.5,4.5,0,0,1,.839-2.382,28.067,28.067,0,0,1,4.683-5.443c1.727-1.657,3.6-3.156,5.428-4.689a19.64,19.64,0,0,1,3.521-5.494,4.3,4.3,0,0,1,3.1-1.394,5.207,5.207,0,0,1,2.075,1.74,45.616,45.616,0,0,1,3.342,4.731c.127.173.226.447.495.429,1.854.193,3.7.427,5.561.583,3.9-1.613,7.75-3.339,11.631-4.989q.309.3.625.594c0,.224,0,.451,0,.677A35.5,35.5,0,0,0,657.1,81.076a17.11,17.11,0,0,1,2.452,6.392c.333,1.976-.186,3.949-.506,5.89-.274.979-.368,2.194-1.284,2.814.327,1.725.911,3.495.535,5.253a8.392,8.392,0,0,1-2.365,2.051c-1.008.662-2.044,1.282-3.09,1.876a1.59,1.59,0,0,1-1.15.094q-4.393-.916-8.785-1.827a32.6,32.6,0,0,1-6.344,10.832,40.188,40.188,0,0,1-9.723,7.911c-2.581,1.105-5.2,2.114-7.8,3.186a42.266,42.266,0,0,0,2.936,8.011,12.981,12.981,0,0,0,4.2,5.156,11.3,11.3,0,0,1,1.516.866c2.892,2.686,5.755,5.406,8.476,8.265a50.95,50.95,0,0,1,5.436,6.53,6.247,6.247,0,0,1,1.3,3.434c-.013.73.028,1.462-.022,2.193a3.678,3.678,0,0,1-2.88,2.347,6.673,6.673,0,0,1-4.61-.633,18.44,18.44,0,0,1-5.417-4.849,10.078,10.078,0,0,1-6.64-2.253,15.114,15.114,0,0,1-4.3-7.093c-3.114-1.948-6.291-3.83-9.239-6.039a33.24,33.24,0,0,1-5.712-5.123,6.924,6.924,0,0,1-1.817-3.765,5.075,5.075,0,0,0-.741-2.189,40.125,40.125,0,0,0-3.182-4.7c-1.839-2.415-3.789-4.744-5.759-7.054a15.3,15.3,0,0,0-6.4,3.745,7.217,7.217,0,0,0-1.981,4.875c-.02,1.841,0,3.684-.009,5.526a3.967,3.967,0,0,0,.721,2.123,49.008,49.008,0,0,0,4.413,5.671,13.109,13.109,0,0,1-.026,2.231c-.23.815-1.218.861-1.911.914q-.315.306-.624.618c0,.208,0,.416,0,.625a7.032,7.032,0,0,1-5.377-2.342c-1.887-2.156-2.658-5.027-3.123-7.792a50.923,50.923,0,0,1-.541-7.391c-.372-1.909-.879-3.793-1.271-5.7q.309-.281.624-.559.011-.657.005-1.308c-.2,0-.4.006-.6.011a2.952,2.952,0,0,1-1.806,2.36,16.1,16.1,0,0,1-5.286,1.383c-1.523-.143-3.03-.421-4.547-.6.017,1.878-.037,3.758.024,5.634,1,2.505,2.141,4.963,3.158,7.464a3.747,3.747,0,0,1-1.484,3.4,6.949,6.949,0,0,1-3.786,1.034,2.5,2.5,0,0,1-1.639-.635,7.5,7.5,0,0,1-2.978-4.569,24.665,24.665,0,0,1-.4-6.061c.005-3.62-.013-7.242.009-10.862.143-2.042,1.7-3.609,3.223-4.8a1.5,1.5,0,0,0-.142-.826,25.465,25.465,0,0,1-3.39-7.242c-.552-2.075-.285-4.236-.348-6.353A36.757,36.757,0,0,1,545.626,84.41a46.643,46.643,0,0,1-1.928-5.336,9.574,9.574,0,0,1-.153-2.566,10.454,10.454,0,0,1,1.122-4.472,78.446,78.446,0,0,1,6.6-11.027c.465-1.863.885-3.743,1.278-5.623-.568-2.3-1.291-4.564-1.876-6.859a14.073,14.073,0,0,1,.844-4.039Z" transform="translate(-543.536 -42.813)"/>
</svg>