<svg xmlns="http://www.w3.org/2000/svg" width="408.754" height="706.268" viewBox="0 0 408.754 706.268">
  <path id="Tracé_1" data-name="Tracé 1" d="M411.2,20.07c3.89-1.96,8.98-2.96,12.76-.2,5.59,4.08,7.7,11.13,9.46,17.51,4.1,16.86,4.43,34.34,4.75,51.6.2,4.89-2.04,9.41-2.68,14.18,1.57,15.62,3.91,31.17,5.41,46.79-.77,21-1.92,42-2.72,63-.06,12.36.03,24.72-.04,37.08-.7,12-1.93,23.96-2.67,35.96.47,8.33,1.48,16.63,2.18,24.95,1,8.48.18,17.04-.47,25.52-3.36,34.25-13.76,67.4-26.66,99.16-1.81,5.53-2.63,11.34-3.99,16.99-8.81,41.69-16.64,83.79-18.78,126.42-.1,6-.85,12.07.3,18.02,2.1,12.46,4.63,24.95,9.17,36.79,3.37,8.32,8.37,18.69,18.54,19.52,4.58,4.59,9.47,8.89,13.87,13.65a95.5,95.5,0,0,1-.14,12.66c-1.07,4.47-5.43,7-9.35,8.7-8.95,3.63-18.65,4.77-28.18,5.77-2.81.39-5.38-1.05-7.78-2.28-10.99-6.28-19.31-16.02-28.01-24.97-3.4-1.17-4.64,4.05-8.05,2.72-12.16-4.22-24.12-9.06-36.25-13.39-2.99-.59-6.06-.23-9.07-.29,0,3.65-.01,7.31,0,10.97,9.72,8.04,19.62,16.61,25.5,27.99,3.08,5.97,4.28,14.25-.95,19.41-7.25,7.04-17.84,8.62-27.41,10.12-.95-.97-1.9-1.93-2.83-2.88-4.84.26-9.45,1.87-14.15,2.9-7.39-3.6-14.88-8.13-19.17-15.39a25.68,25.68,0,0,1-3.38-12c-15.09,9.34-32.9,13.66-50.56,13.71-5.96-10.13-12.89-20.4-23.27-26.43a30.019,30.019,0,0,0-13.07-3.81c-1.41,3.97-5.03,6.38-8.52,8.38-10.45,5.72-21.82,9.53-33.1,13.24a62.123,62.123,0,0,1-19.38-.76c-17.8-3.07-35.7-7.08-52.08-14.92-9.77-4.79-19.41-11.31-24.65-21.16-5.25-9.77-4.99-22.68,1.95-31.58,6.99-9.05,17.81-13.96,28.37-17.51,19.08-6.15,39.17-8.23,59.08-9.53q-4.17-48.87-8.35-97.73A448.5,448.5,0,0,1,123,429.96c5.8-33.5,16.41-66.56,34.54-95.49a188.712,188.712,0,0,1,83.55-72.74c13.21-4.47,26.95-8.84,37.96-17.74,2.04-1.85,5.67-4.42,3.49-7.52-9.06-12.15-18.21-24.36-25.22-37.85-2.66-5.5-5.45-11.32-5.22-17.59.09-7.7-.12-15.41.1-23.11a22.989,22.989,0,0,1,2.69-2.98c-8.49-19.21-16.32-38.76-22.09-58.98-3.57-12.89-6.39-26.15-6.11-39.6q2.88-2.655,5.62-5.45c6.94,1.27,12.79,5.53,18.68,9.16,15.5,10.3,30.11,21.86,44.63,33.47,2.24,2.2,5.65,1.02,8.44,1.13,16.78-1.53,33.79-3.26,49.79-8.86,5.37-2.08,11.04-4.59,14.55-9.37,1.97-2.51,1.64-5.98,3.4-8.59,6.8-11.34,13.95-22.51,22.35-32.72,4.98-5.72,10.25-11.49,17.05-15.06M319.44,614.48a29.861,29.861,0,0,1-11.02,3.29c.01.87.02,1.74.03,2.62q19.74,1.335,39.47,2.74c-.89-9.1-1.86-18.18-2.79-27.27-8.09,6.81-16.19,13.83-25.69,18.62M99.8,655.96v2.73c5.73.8,11.47,1.58,17.2,2.42a16.2,16.2,0,0,0,7-.12c6.03-1.69,12.08-3.34,18.12-5.05,0-.68-.01-2.05-.01-2.73-14.13.18-28.2,1.91-42.31,2.75m143.77,5.48c2.88,2.71,5.69,5.51,8.55,8.24q-.015-4.125-.01-8.23-4.275-.03-8.54-.01Z" transform="translate(-32.146 -18.172)"/>
</svg>
