<svg width="60" height="36" viewBox="0 0 60 36" fill="none" xmlns="http://www.w3.org/2000/svg">
<path d="M18 0C8.0625 0 0 8.0625 0 18C0 27.9375 8.0625 36 18 36H42C51.9375 36 60 27.9375 60 18C60 8.0625 51.9375 0 42 0H18ZM46.5 9.75C47.4946 9.75 48.4484 10.1451 49.1517 10.8483C49.8549 11.5516 50.25 12.5054 50.25 13.5C50.25 14.4946 49.8549 15.4484 49.1517 16.1516C48.4484 16.8549 47.4946 17.25 46.5 17.25C45.5054 17.25 44.5516 16.8549 43.8484 16.1516C43.1451 15.4484 42.75 14.4946 42.75 13.5C42.75 12.5054 43.1451 11.5516 43.8484 10.8483C44.5516 10.1451 45.5054 9.75 46.5 9.75ZM36.75 22.5C36.75 21.5054 37.1451 20.5516 37.8484 19.8484C38.5516 19.1451 39.5054 18.75 40.5 18.75C41.4946 18.75 42.4484 19.1451 43.1516 19.8484C43.8549 20.5516 44.25 21.5054 44.25 22.5C44.25 23.4946 43.8549 24.4484 43.1516 25.1516C42.4484 25.8549 41.4946 26.25 40.5 26.25C39.5054 26.25 38.5516 25.8549 37.8484 25.1516C37.1451 24.4484 36.75 23.4946 36.75 22.5ZM15.75 12.75C15.75 11.5031 16.7531 10.5 18 10.5C19.2469 10.5 20.25 11.5031 20.25 12.75V15.75H23.25C24.4969 15.75 25.5 16.7531 25.5 18C25.5 19.2469 24.4969 20.25 23.25 20.25H20.25V23.25C20.25 24.4969 19.2469 25.5 18 25.5C16.7531 25.5 15.75 24.4969 15.75 23.25V20.25H12.75C11.5031 20.25 10.5 19.2469 10.5 18C10.5 16.7531 11.5031 15.75 12.75 15.75H15.75V12.75Z" fill="#06100E"/>
</svg>