<svg version="1.1" id="WarriorsUniverse" xmlns="http://www.w3.org/2000/svg" xmlns:xlink="http://www.w3.org/1999/xlink" viewBox="0 0 500 500" style="enable-background:new 0 0 500 500;" xml:space="preserve">
  <!-- Background Circle -->
  <circle cx="250" cy="250" r="240" fill="#000000" stroke="#000" stroke-width="5"/>

  <!-- Center Icon -->
  <!-- <text x="250" y="250" font-size="30" text-anchor="middle" fill="#000">La Guerre des Clans</text> -->

  <!-- Paw Print -->
  <a xlink:href="/characters" target="_blank">
    <path d="M150,100 c-10,-20 -40,-20 -50,0 c-10,20 0,30 10,30 s20,-10 30,0 c10,20 40,20 50,0 c10,-20 0,-30 -10,-30 s-20,10 -30,0Z"
          fill="#8B4513" />
  </a>

  <!-- Trees -->
  <!-- <a xlink:href="/locations/forest" target="_blank">-->
    <!-- <path d="M350,100 l-20,-40 l-20,40 l10,0 l-20,40 l-20,-40 l10,0 l-20,40 l-20,-40 l-20,40 l20,0 l-20,40 l20,0 l-20,40 l20,0 l-20,40 l20,0 l-20,40 l20,0 l-20,40 l20,0 l-20,40 l20,0 l-20,40 l20,0 l-20,40 l20,0 l-20,40 l20,0 l-20,40 l20,0 l-20,40 l20,0 l-20,40 l20,0 l-20,40 l20,0 l-20,40 l20,0 l-20,40 l20,0 l-20,40 l20,0 l-20,40 l20,0 l-20,40 l20,0 l-20,40 l20,0 l-20,40 l20,0 l-20,40 l20,0 l-20,40 l20,0 l-20,40 l20,0 l-20,40 l20,0 l-20,40 l20,0 l-20,40 l20,0 l-20,40 l20,0 l-20,40 l20,0 l-20,40 l20,0 l-20,40 l20,0 l-20,40 l20,0 l-20,40 l20,0 l-20,40 l20,0 l-20,40 l20,0 l-20,40 l20,0 l-20,40 l20,0 l-20,40 l20,0 l-20,40 l20,0 l-20,40 l20,0 l-20,40 l20,0 l-20,40 l20,0 l-20,40 l20,0 l-20,40 l20,0 l-20,40 l20,0 l-20,40 l20,0 l-20,40 l20,0 l-20,40 l20,0 l-20,40 l20,0 l-20,40 l20,0 l-20,40 l20,0 l-20,40 l20,0 l-20,40 l20,0 l-20,40 l20,0 l-20,40 l20,0 l-20,40 l20,0 l-20,40 l20,0 l-20,40 l20,0 l-20,40 l20,0 l-20,40 l20,0 l-20,40 l20,0 l-20,40 l20,0 l-20,40 l20,0 l-20,40 l20,0 l-20,40 l20,0 l-20,40 l20,0 l-20,40 l20,0 l-20,40 l20,0 l-20,40 l20,0 l-20,40 l20,0 l-20,40 l20,0 l-20,40 l20,0 l-20,40 l20,0 l-20,40 l20,0 l-20,40 l20,0 l-20,40 l20,0 l-20,40 l20,0 l-20,40 l20,0 l-20,40 l20,0 l-20,40 l20,0 l-20,40 l20,0 l-20,40 l20,0 l-20,40 l20,0 l-20,40 l20,0 l-20,40 l20,0 l-20,40 l20,0 l-20,40 l20,0 l-20,40 l20,0 l-20,40 l20,0 l-20,40 l20,0 l-20,40 l20,0 l-20,40 l20,0 l-20,40 l20,0 l-20,40 l20,0 l-20,40 l20,0 l-20,40 l20,0 l-20,40 l20,0 l-20,40 l20,0 l-20,40 l20,0 l-20,40 l20,0 l-20,40 l20,0 l-20,40 l20,0 l-20,40 l20,0 l-20,40 l20,0 l-20,40 l20,0 l-20,40 l20,0 l-20,40 l20,0 l-20,40 l20,0 l-20,40 l20,0 l-20,40 l20,0 l-20,40 l20,0 l-20,40 l20,0 l-20,40 l20,0 l-20,40 l20,0 l-20,40 l20,0 l-20,40 l20,0 l-20,40 l20,0 l-20,40 l20,0 l-20,40 l20,0 l-20,40 l20,0 l-20,40 l20,0 l-20,40 l20,0 l-20,40 l20,0 l-20,40 l20,0 l-20,40 l20,0 l-20,40 l20,0 l-20,40 l20,0 l-20,40 l20,0 l-20,40 l20,0 l-20,40 l20,0 l-20,40 l20,0 l-20,40 l20,0 l-20,40 l20,0 l-20,40 l20,0 l-20,40 l20,0 l-20,40 l20,0 l-20,40 l20,0 l-20,40 l20,0 l-20,40 l20,0 l-20,40 l20,0 l-20,40 l20,0 l-20,40 l20,0 l-20,40 l20,0 l-20,40 l20,0 l-20,40 l20,0 l-20,40 l20,0 l-20,40 l20,0 l-20,40 l20,0 l-20,40 l20,0 l-20,40 l20,0 l-20,40 l20,0 l-20,40 l20,0 l-20,40 l20,0 l-20,40 l20,0 l-20,40 l20,0 l-20,40 l20,0 l-20,40 l20,0 l-20,40 l20,0 l-20,40 l20,0 l-20,40 l20,0 l-20,40 l20,0 l-20,40 l20,0 l-20,40 l20,0 l-20,40 l20,0 l-20,40 l20,0 l-20,40 l20,0 l-20,40 l20,0 l-20,40 l20,0 l-20,40 l20,0 l"
    fill="#8B4513"> -->
</svg>