<svg width="60" height="48" viewBox="0 0 60 48" fill="none" xmlns="http://www.w3.org/2000/svg">
<g clip-path="url(#clip0_78_549)">
<path d="M13.5 0C15.4891 0 17.3968 0.790176 18.8033 2.1967C20.2098 3.60322 21 5.51088 21 7.5C21 9.48912 20.2098 11.3968 18.8033 12.8033C17.3968 14.2098 15.4891 15 13.5 15C11.5109 15 9.60322 14.2098 8.1967 12.8033C6.79018 11.3968 6 9.48912 6 7.5C6 5.51088 6.79018 3.60322 8.1967 2.1967C9.60322 0.790176 11.5109 0 13.5 0ZM48 0C49.9891 0 51.8968 0.790176 53.3033 2.1967C54.7098 3.60322 55.5 5.51088 55.5 7.5C55.5 9.48912 54.7098 11.3968 53.3033 12.8033C51.8968 14.2098 49.9891 15 48 15C46.0109 15 44.1032 14.2098 42.6967 12.8033C41.2902 11.3968 40.5 9.48912 40.5 7.5C40.5 5.51088 41.2902 3.60322 42.6967 2.1967C44.1032 0.790176 46.0109 0 48 0ZM0 28.0031C0 22.4813 4.48125 18 10.0031 18H14.0062C15.4969 18 16.9125 18.3281 18.1875 18.9094C18.0656 19.5844 18.0094 20.2875 18.0094 21C18.0094 24.5812 19.5844 27.7969 22.0687 30C22.05 30 22.0312 30 22.0031 30H1.99687C0.9 30 0 29.1 0 28.0031ZM37.9969 30C37.9781 30 37.9594 30 37.9313 30C40.425 27.7969 41.9906 24.5812 41.9906 21C41.9906 20.2875 41.925 19.5938 41.8125 18.9094C43.0875 18.3188 44.5031 18 45.9938 18H49.9969C55.5187 18 60 22.4813 60 28.0031C60 29.1094 59.1 30 58.0031 30H37.9969ZM21 21C21 18.6131 21.9482 16.3239 23.636 14.636C25.3239 12.9482 27.6131 12 30 12C32.3869 12 34.6761 12.9482 36.364 14.636C38.0518 16.3239 39 18.6131 39 21C39 23.3869 38.0518 25.6761 36.364 27.364C34.6761 29.0518 32.3869 30 30 30C27.6131 30 25.3239 29.0518 23.636 27.364C21.9482 25.6761 21 23.3869 21 21ZM12 45.4969C12 38.5969 17.5969 33 24.4969 33H35.5031C42.4031 33 48 38.5969 48 45.4969C48 46.875 46.8844 48 45.4969 48H14.5031C13.125 48 12 46.8844 12 45.4969Z" fill="#06100E"/>
<g clip-path="url(#clip1_78_549)">
<path d="M13.5 0C15.4891 0 17.3968 0.790176 18.8033 2.1967C20.2098 3.60322 21 5.51088 21 7.5C21 9.48912 20.2098 11.3968 18.8033 12.8033C17.3968 14.2098 15.4891 15 13.5 15C11.5109 15 9.60322 14.2098 8.1967 12.8033C6.79018 11.3968 6 9.48912 6 7.5C6 5.51088 6.79018 3.60322 8.1967 2.1967C9.60322 0.790176 11.5109 0 13.5 0ZM48 0C49.9891 0 51.8968 0.790176 53.3033 2.1967C54.7098 3.60322 55.5 5.51088 55.5 7.5C55.5 9.48912 54.7098 11.3968 53.3033 12.8033C51.8968 14.2098 49.9891 15 48 15C46.0109 15 44.1032 14.2098 42.6967 12.8033C41.2902 11.3968 40.5 9.48912 40.5 7.5C40.5 5.51088 41.2902 3.60322 42.6967 2.1967C44.1032 0.790176 46.0109 0 48 0ZM0 28.0031C0 22.4813 4.48125 18 10.0031 18H14.0062C15.4969 18 16.9125 18.3281 18.1875 18.9094C18.0656 19.5844 18.0094 20.2875 18.0094 21C18.0094 24.5812 19.5844 27.7969 22.0687 30C22.05 30 22.0312 30 22.0031 30H1.99687C0.9 30 0 29.1 0 28.0031ZM37.9969 30C37.9781 30 37.9594 30 37.9313 30C40.425 27.7969 41.9906 24.5812 41.9906 21C41.9906 20.2875 41.925 19.5938 41.8125 18.9094C43.0875 18.3188 44.5031 18 45.9938 18H49.9969C55.5187 18 60 22.4813 60 28.0031C60 29.1094 59.1 30 58.0031 30H37.9969ZM21 21C21 18.6131 21.9482 16.3239 23.636 14.636C25.3239 12.9482 27.6131 12 30 12C32.3869 12 34.6761 12.9482 36.364 14.636C38.0518 16.3239 39 18.6131 39 21C39 23.3869 38.0518 25.6761 36.364 27.364C34.6761 29.0518 32.3869 30 30 30C27.6131 30 25.3239 29.0518 23.636 27.364C21.9482 25.6761 21 23.3869 21 21ZM12 45.4969C12 38.5969 17.5969 33 24.4969 33H35.5031C42.4031 33 48 38.5969 48 45.4969C48 46.875 46.8844 48 45.4969 48H14.5031C13.125 48 12 46.8844 12 45.4969Z" fill="#06100E"/>
</g>
</g>
<defs>
<clipPath id="clip0_78_549">
<rect width="60" height="48" fill="white"/>
</clipPath>
<clipPath id="clip1_78_549">
<rect width="60" height="48" fill="white"/>
</clipPath>
</defs>
</svg>
