<svg width="42" height="48" viewBox="0 0 42 48" fill="none" xmlns="http://www.w3.org/2000/svg">
<path d="M21 24C24.1826 24 27.2348 22.7357 29.4853 20.4853C31.7357 18.2348 33 15.1826 33 12C33 8.8174 31.7357 5.76516 29.4853 3.51472C27.2348 1.26428 24.1826 0 21 0C17.8174 0 14.7652 1.26428 12.5147 3.51472C10.2643 5.76516 9 8.8174 9 12C9 15.1826 10.2643 18.2348 12.5147 20.4853C14.7652 22.7357 17.8174 24 21 24ZM16.7156 28.5C7.48125 28.5 0 35.9812 0 45.2156C0 46.7531 1.24688 48 2.78438 48H39.2156C40.7531 48 42 46.7531 42 45.2156C42 35.9812 34.5188 28.5 25.2844 28.5H16.7156Z" fill="#06100E"/>
</svg>
